<?xml version="1.0" encoding="UTF-8" standalone="no"?>
<svg version="1.1" xmlns="http://www.w3.org/2000/svg" xmlns:xlink="http://www.w3.org/1999/xlink" preserveAspectRatio="xMidYMid meet" viewBox="0 0 32 32" width="32" height="32">
    <defs>
        <path d="M31.5 16C31.5 24.55 24.55 31.5 16 31.5C7.45 31.5 0.5 24.55 0.5 16C0.5 7.45 7.45 0.5 16 0.5C24.55 0.5 31.5 7.45 31.5 16Z" id="a1eDaba5Tt"></path>
        <path d="M17.5 7.38C17.5 7.38 17.53 7.35 17.54 7.35C17.54 7.35 17.62 7.38 17.76 7.44C17.82 7.46 17.9 7.49 17.99 7.53C18.09 7.56 18.18 7.6 18.29 7.63C18.34 7.64 18.39 7.66 18.45 7.67C18.48 7.67 18.5 7.68 18.53 7.68C18.56 7.68 18.59 7.68 18.61 7.69C18.72 7.7 18.82 7.69 18.93 7.68C18.98 7.67 19.04 7.66 19.1 7.64C19.15 7.61 19.21 7.59 19.26 7.55C19.29 7.53 19.31 7.52 19.34 7.5C19.37 7.48 19.4 7.47 19.43 7.44C19.45 7.42 19.61 7.29 19.63 7.27C19.63 7.27 19.61 7.29 19.62 7.28C19.62 7.28 19.62 7.28 19.62 7.28L19.62 7.28L19.63 7.27L19.64 7.26L19.67 7.24L19.72 7.19C19.78 7.14 19.81 7.11 19.82 7.1C19.88 7.04 19.95 6.99 20.02 6.93C20.08 6.87 20.16 6.83 20.22 6.77C20.29 6.71 20.37 6.67 20.45 6.62C20.61 6.54 20.8 6.49 20.97 6.51C21.01 6.51 21.06 6.52 21.1 6.53C21.14 6.54 21.17 6.55 21.21 6.57C21.29 6.59 21.35 6.63 21.41 6.66C21.53 6.73 21.63 6.81 21.71 6.89C21.79 6.97 21.84 7.05 21.89 7.12C21.93 7.18 21.95 7.24 21.97 7.28C21.99 7.32 21.99 7.34 21.99 7.34C21.99 7.35 21.96 7.38 21.95 7.38C21.95 7.38 21.87 7.35 21.73 7.3C21.67 7.27 21.59 7.24 21.49 7.2C21.41 7.16 21.31 7.12 21.21 7.09C21.16 7.07 21.1 7.05 21.05 7.04C21.02 7.03 21 7.02 20.97 7.01C20.94 7.01 20.91 7 20.89 6.99C20.78 6.96 20.66 6.92 20.52 6.91C20.46 6.91 20.38 6.91 20.31 6.94C20.25 6.97 20.18 7 20.12 7.06C20.07 7.11 20.01 7.16 19.97 7.23C19.97 7.24 19.95 7.28 19.92 7.34L19.9 7.39L19.88 7.42L19.88 7.43L19.88 7.44L19.87 7.44C19.87 7.45 19.87 7.45 19.87 7.45C19.88 7.44 19.87 7.46 19.87 7.46C19.86 7.48 19.77 7.67 19.76 7.69C19.73 7.76 19.65 7.85 19.58 7.92C19.52 8 19.43 8.05 19.35 8.11C19.27 8.17 19.17 8.2 19.08 8.24C18.89 8.3 18.68 8.31 18.51 8.26C18.42 8.24 18.34 8.22 18.27 8.18C18.2 8.15 18.13 8.11 18.07 8.07C17.96 8 17.86 7.91 17.79 7.83C17.71 7.75 17.65 7.67 17.61 7.6C17.52 7.47 17.52 7.43 17.5 7.38ZM26 25.5L6 25.5L6 20.74L7.36 20.74L7.36 15.38L11.2 12.69L11.2 15.38L15.04 12.69L15.04 15.38L18.88 12.69L18.88 17.98L20.2 17.98L20.92 8.62L23.12 8.62L23.75 17.98L25.23 17.98L25.23 20.74L26 20.74L26 20.74L26 25.5ZM9.25 18.68L9.25 21.46L12.27 21.46L12.27 18.68L9.25 18.68ZM14.45 18.68L14.45 21.46L17.47 21.46L17.47 18.68L14.45 18.68ZM19.72 18.68L19.72 21.46L22.74 21.46L22.74 18.68L19.72 18.68Z" id="cihxxxmZ8"></path>
    </defs>
    <g>
        <g>
            <g>
                <use xlink:href="#a1eDaba5Tt" opacity="1" fill="#ffffff" fill-opacity="1"></use>
                <g>
                    <use xlink:href="#a1eDaba5Tt" opacity="1" fill-opacity="0" stroke="#000000" stroke-width="1" stroke-opacity="1"></use>
                </g>
            </g>
            <g>
                <use xlink:href="#cihxxxmZ8" opacity="1" fill="#000000" fill-opacity="1"></use>
                <g>
                    <use xlink:href="#cihxxxmZ8" opacity="1" fill-opacity="0" stroke="#000000" stroke-width="1" stroke-opacity="0"></use>
                </g>
            </g>
        </g>
    </g>
</svg>
