<svg width="23.999999999999996" height="23.999999999999996" xmlns="http://www.w3.org/2000/svg" xmlns:svg="http://www.w3.org/2000/svg">
  <g>
   <circle fill="#ffffff" stroke-width="null" stroke-dasharray="null" stroke-linejoin="null" stroke-linecap="null" cx="12" cy="11.999999" r="11.458618" id="svg_10" stroke="#000000"/>
    <g>
     <polygon points="19.250675950199366,7.6675004959106445 19.250675950199366,7.207500457763672 17.03067472949624,7.207500457763672 17.03067472949624,9.04949951171875 19.250675950199366,9.04949951171875 19.250675950199366,8.587499618530273 20.91567686572671,8.587499618530273 20.91567686572671,7.6675004959106445 " fill="#030104" id="svg_3"/>
     <polygon points="19.250675950199366,11.080499649047852 17.03067472949624,11.080499649047852 17.03067472949624,12.921499252319336 19.250675950199366,12.921499252319336 19.250675950199366,12.46150016784668 20.91567686572671,12.46150016784668 20.91567686572671,11.541500091552734 19.250675950199366,11.541500091552734 " fill="#030104" id="svg_4"/>
     <polygon points="19.250675950199366,15.015499114990234 17.03067472949624,15.015499114990234 17.03067472949624,16.855499267578125 19.250675950199366,16.855499267578125 19.250675950199366,16.396499633789062 20.91567686572671,16.396499633789062 20.91567686572671,15.476499557495117 19.250675950199366,15.476499557495117 " fill="#030104" id="svg_5"/>
     <polygon points="4.676674637943506,7.82450008392334 3.0176742412149906,7.82450008392334 3.0176742412149906,8.744499206542969 4.676674637943506,8.744499206542969 4.676674637943506,9.204500198364258 6.888674531131983,9.204500198364258 6.888674531131983,7.363500595092773 4.676674637943506,7.363500595092773 " fill="#030104" id="svg_6"/>
     <polygon points="4.676674637943506,11.695499420166016 3.0176742412149906,11.695499420166016 3.0176742412149906,12.615499496459961 4.676674637943506,12.615499496459961 4.676674637943506,13.07550048828125 6.888674531131983,13.07550048828125 6.888674531131983,11.233499526977539 4.676674637943506,11.233499526977539 " fill="#030104" id="svg_7"/>
     <polygon points="4.676674637943506,15.630500793457031 3.0176742412149906,15.630500793457031 3.0176742412149906,16.550498962402344 4.676674637943506,16.550498962402344 4.676674637943506,17.011499404907227 6.888674531131983,17.011499404907227 6.888674531131983,15.170499801635742 4.676674637943506,15.170499801635742 " fill="#030104" id="svg_8"/>
     <path d="m16.260674,6.509501l-8.505,0c-0.211,0 -0.381001,0.17 -0.381001,0.381l0,10.217999c0,0.211 0.17,0.382 0.381001,0.382l8.505,0c0.209999,0 0.381002,-0.171 0.381002,-0.382l0,-10.217999c0,-0.211 -0.171001,-0.381 -0.381002,-0.381zm-7.181999,2.631001c-0.439,0 -0.794001,-0.355001 -0.794001,-0.793001c0,-0.438 0.355,-0.794 ÏÏ0.794001,-0.794c0.438,0 0.792999,0.355 0.792999,0.794c0,0.437 -0.353999,0.793001 -0.792999,0.793001z" fill="#030104" id="svg_9"/>
    </g>ÏÏ
  </g>
 
 </svg>
