<?xml version="1.0" encoding="UTF-8" standalone="no"?>
<svg version="1.1" xmlns="http://www.w3.org/2000/svg" xmlns:xlink="http://www.w3.org/1999/xlink" preserveAspectRatio="xMidYMid meet" viewBox="0 0 32 32" width="32" height="32">
    <defs>
        <path d="M31.5 16C31.5 24.55 24.55 31.5 16 31.5C7.45 31.5 0.5 24.55 0.5 16C0.5 7.45 7.45 0.5 16 0.5C24.55 0.5 31.5 7.45 31.5 16Z" id="b7bz8wAdY6"></path>
        <path d="M16.9 16.61C16.9 16.61 16.92 16.59 16.92 16.59C16.92 16.59 16.97 16.61 17.06 16.64C17.09 16.66 17.14 16.68 17.2 16.7C17.25 16.72 17.31 16.74 17.38 16.76C17.41 16.77 17.44 16.78 17.47 16.78C17.49 16.78 17.5 16.79 17.52 16.79C17.54 16.79 17.55 16.79 17.57 16.8C17.63 16.8 17.69 16.8 17.76 16.79C17.79 16.78 17.83 16.78 17.86 16.76C17.89 16.75 17.93 16.74 17.96 16.71C17.97 16.7 17.99 16.69 18.01 16.68C18.02 16.67 18.04 16.66 18.06 16.64C18.07 16.63 18.16 16.56 18.18 16.55C18.18 16.54 18.17 16.56 18.17 16.55C18.17 16.55 18.17 16.55 18.17 16.55L18.18 16.55L18.18 16.54L18.19 16.54L18.2 16.52L18.23 16.5C18.27 16.46 18.29 16.45 18.29 16.44C18.33 16.4 18.37 16.38 18.41 16.34C18.45 16.3 18.5 16.28 18.53 16.24C18.57 16.21 18.62 16.19 18.67 16.15C18.77 16.11 18.88 16.07 18.98 16.09C19.01 16.09 19.03 16.1 19.06 16.1C19.08 16.11 19.11 16.11 19.13 16.12C19.17 16.14 19.21 16.16 19.25 16.18C19.32 16.22 19.38 16.27 19.43 16.32C19.47 16.37 19.51 16.41 19.53 16.45C19.56 16.49 19.57 16.53 19.58 16.55C19.59 16.58 19.6 16.59 19.6 16.59C19.6 16.59 19.58 16.61 19.57 16.61C19.57 16.61 19.52 16.59 19.44 16.56C19.4 16.54 19.35 16.53 19.3 16.5C19.25 16.48 19.19 16.46 19.13 16.44C19.09 16.43 19.06 16.41 19.03 16.41C19.02 16.4 19 16.4 18.98 16.39C18.97 16.39 18.95 16.38 18.93 16.38C18.87 16.36 18.8 16.34 18.72 16.33C18.68 16.33 18.63 16.33 18.59 16.35C18.55 16.37 18.51 16.38 18.48 16.42C18.44 16.45 18.41 16.48 18.39 16.52C18.38 16.53 18.37 16.55 18.35 16.59L18.34 16.62L18.33 16.64L18.33 16.64L18.33 16.65L18.33 16.65C18.33 16.65 18.33 16.65 18.33 16.65C18.33 16.65 18.32 16.66 18.32 16.66C18.31 16.67 18.26 16.78 18.26 16.8C18.24 16.84 18.19 16.89 18.15 16.94C18.11 16.98 18.06 17.01 18.01 17.05C17.96 17.08 17.9 17.1 17.85 17.13C17.73 17.16 17.61 17.17 17.51 17.14C17.46 17.13 17.41 17.11 17.37 17.09C17.32 17.07 17.28 17.05 17.25 17.03C17.17 16.98 17.12 16.93 17.07 16.88C17.03 16.83 16.99 16.79 16.97 16.75C16.92 16.67 16.91 16.64 16.9 16.61ZM22 27.49L10 27.49L10 24.62L10.82 24.62L10.82 21.41L13.12 19.8L13.12 21.41L15.43 19.8L15.43 21.41L17.73 19.8L17.73 22.97L18.52 22.97L18.96 17.35L20.27 17.35L20.65 22.97L21.54 22.97L21.54 24.63L22 24.63L22 24.62L22 27.49ZM11.95 23.39L11.95 25.06L13.76 25.06L13.76 23.39L11.95 23.39ZM15.07 23.39L15.07 25.06L16.88 25.06L16.88 23.39L15.07 23.39ZM18.23 23.39L18.23 25.06L20.04 25.06L20.04 23.39L18.23 23.39Z" id="b2nxfFmQhl"></path>
        <path d="M21.7 5.05L19.96 5.05L19.96 6.49L21.7 6.49L21.7 6.13L23 6.13L23 5.41L21.7 5.41L21.7 5.05Z" id="atlDTaFsb"></path>
        <path d="M9 5.53L9 6.25L10.3 6.25L10.3 6.61L12.03 6.61L12.03 5.17L10.3 5.17L10.3 5.53L9 5.53Z" id="f3KMGcpTEC"></path>
        <path d="M12.71 4.5C12.54 4.5 12.41 4.64 12.41 4.8C12.41 5.6 12.41 12 12.41 12.8C12.41 12.96 12.54 13.09 12.71 13.09C13.37 13.09 18.69 13.09 19.36 13.09C19.52 13.09 19.66 12.96 19.66 12.8C19.66 12 19.66 5.6 19.66 4.8C19.66 4.64 19.52 4.5 19.36 4.5C18.03 4.5 13.37 4.5 12.71 4.5ZM13.12 5.94C13.12 5.6 13.4 5.32 13.74 5.32C14.08 5.32 14.36 5.6 14.36 5.94C14.36 6.28 14.08 6.56 13.74 6.56C13.4 6.56 13.12 6.28 13.12 5.94Z" id="crS3QIyGg"></path>
        <path d="M19.96 8.08L19.96 9.52L21.7 9.52L21.7 9.16L23 9.16L23 8.44L21.7 8.44L21.7 8.08L19.96 8.08Z" id="jNMpFxpC0"></path>
        <path d="M19.96 11.16L19.96 12.6L21.7 12.6L21.7 12.24L23 12.24L23 11.52L21.7 11.52L21.7 11.16L19.96 11.16Z" id="a2PQsbyBfg"></path>
        <path d="M9 8.56L9 9.28L10.3 9.28L10.3 9.64L12.03 9.64L12.03 8.2L10.3 8.2L10.3 8.56L9 8.56Z" id="eLxIUwI1"></path>
        <path d="M9 11.64L9 12.36L10.3 12.36L10.3 12.72L12.03 12.72L12.03 11.28L10.3 11.28L10.3 11.64L9 11.64Z" id="f1wYWej7rG"></path>
    </defs>
    <g>
        <g>
            <g>
                <use xlink:href="#b7bz8wAdY6" opacity="1" fill="#ffffff" fill-opacity="1"></use>
                <g>
                    <use xlink:href="#b7bz8wAdY6" opacity="1" fill-opacity="0" stroke="#000000" stroke-width="1" stroke-opacity="1"></use>
                </g>
            </g>
            <g>
                <use xlink:href="#b2nxfFmQhl" opacity="1" fill="#000000" fill-opacity="1"></use>
                <g>
                    <use xlink:href="#b2nxfFmQhl" opacity="1" fill-opacity="0" stroke="#000000" stroke-width="1" stroke-opacity="0"></use>
                </g>
            </g>
            <g>
                <g>
                    <g>
                        <use xlink:href="#atlDTaFsb" opacity="1" fill="#030104" fill-opacity="1"></use>
                        <g>
                            <use xlink:href="#atlDTaFsb" opacity="1" fill-opacity="0" stroke="#000000" stroke-width="1" stroke-opacity="0"></use>
                        </g>
                    </g>
                    <g>
                        <use xlink:href="#f3KMGcpTEC" opacity="1" fill="#030104" fill-opacity="1"></use>
                        <g>
                            <use xlink:href="#f3KMGcpTEC" opacity="1" fill-opacity="0" stroke="#000000" stroke-width="1" stroke-opacity="0"></use>
                        </g>
                    </g>
                    <g>
                        <use xlink:href="#crS3QIyGg" opacity="1" fill="#030104" fill-opacity="1"></use>
                        <g>
                            <use xlink:href="#crS3QIyGg" opacity="1" fill-opacity="0" stroke="#000000" stroke-width="1" stroke-opacity="0"></use>
                        </g>
                    </g>
                </g>
                <g>
                    <use xlink:href="#jNMpFxpC0" opacity="1" fill="#030104" fill-opacity="1"></use>
                    <g>
                        <use xlink:href="#jNMpFxpC0" opacity="1" fill-opacity="0" stroke="#000000" stroke-width="1" stroke-opacity="0"></use>
                    </g>
                </g>
                <g>
                    <use xlink:href="#a2PQsbyBfg" opacity="1" fill="#030104" fill-opacity="1"></use>
                    <g>
                        <use xlink:href="#a2PQsbyBfg" opacity="1" fill-opacity="0" stroke="#000000" stroke-width="1" stroke-opacity="0"></use>
                    </g>
                </g>
                <g>
                    <use xlink:href="#eLxIUwI1" opacity="1" fill="#030104" fill-opacity="1"></use>
                    <g>
                        <use xlink:href="#eLxIUwI1" opacity="1" fill-opacity="0" stroke="#000000" stroke-width="1" stroke-opacity="0"></use>
                    </g>
                </g>
                <g>
                    <use xlink:href="#f1wYWej7rG" opacity="1" fill="#030104" fill-opacity="1"></use>
                    <g>
                        <use xlink:href="#f1wYWej7rG" opacity="1" fill-opacity="0" stroke="#000000" stroke-width="1" stroke-opacity="0"></use>
                    </g>
                </g>
            </g>
        </g>
    </g>
</svg>